<svg width="24" height="22" viewBox="0 0 24 22" fill="none" xmlns="http://www.w3.org/2000/svg">
<path d="M21.6 3.99648e-06C20.2772 -0.00238663 19.2029 1.06805 19.2005 2.39091C19.1993 3.01439 19.4414 3.61379 19.8752 4.06163L15.4904 12.8296C15.3943 12.8137 15.2973 12.8038 15.2 12.8001C14.8902 12.8007 14.5834 12.8616 14.2968 12.9793L10.8928 9.15127C11.0915 8.79994 11.1973 8.40371 11.2 8.00007C11.2 6.67458 10.1255 5.60007 8.80003 5.60007C7.47455 5.60007 6.40003 6.67458 6.40003 8.00007C6.40237 8.57297 6.61148 9.12577 6.98883 9.55688L2.82881 16.8432C2.68744 16.816 2.54395 16.8016 2.4 16.8C1.07452 16.8 0 17.8745 0 19.2C0 20.5255 1.07452 21.6 2.4 21.6C3.72548 21.6 4.8 20.5255 4.8 19.2C4.79766 18.6271 4.58855 18.0743 4.2112 17.6432L8.37122 10.3568C8.8178 10.445 9.28055 10.3977 9.70003 10.2208L13.104 14.0488C12.9065 14.4004 12.8018 14.7967 12.8001 15.2C12.7961 16.5255 13.8673 17.6033 15.1928 17.6072C16.5183 17.6112 17.596 16.54 17.6 15.2145C17.6019 14.5892 17.3596 13.9878 16.9248 13.5384L21.3096 4.77043C21.4057 4.78636 21.5027 4.79625 21.6 4.8C22.9255 4.8 24 3.72549 24 2.4C24 1.07452 22.9255 3.99648e-06 21.6 3.99648e-06ZM2.4 20C1.95816 20 1.59998 19.6418 1.59998 19.2C1.59998 18.7582 1.95816 18.4 2.4 18.4C2.84184 18.4 3.20002 18.7582 3.20002 19.2C3.20002 19.6418 2.84184 20 2.4 20ZM8.79998 8.79999C8.35814 8.79999 7.99997 8.44182 7.99997 7.99997C7.99997 7.55813 8.35814 7.19996 8.79998 7.19996C9.24183 7.19996 9.6 7.55813 9.6 7.99997C9.6 8.44182 9.24183 8.79999 8.79998 8.79999ZM15.2 16C14.7582 16 14.4 15.6418 14.4 15.2C14.4 14.7581 14.7582 14.4 15.2 14.4C15.6419 14.4 16 14.7581 16 15.2C16 15.6418 15.6418 16 15.2 16ZM21.6 3.20002C21.1582 3.20002 20.8 2.84185 20.8 2.4C20.8 1.95816 21.1582 1.59999 21.6 1.59999C22.0418 1.59999 22.4 1.95816 22.4 2.4C22.4 2.84185 22.0418 3.20002 21.6 3.20002Z" fill="#0071FF"/>
</svg>
