<svg width="25" height="26" viewBox="0 0 25 26" fill="none" xmlns="http://www.w3.org/2000/svg">
<path d="M24 22.3334H8M0 3.66669H5.33333H0ZM24 3.66669H10.6667H24ZM0 13H16H0ZM24 13H21.3333H24ZM0 22.3334H2.66667H0Z" stroke="#0071FF" stroke-width="2" stroke-linecap="round"/>
<path d="M7.9998 6.33333C9.47256 6.33333 10.6665 5.13943 10.6665 3.66667C10.6665 2.19391 9.47256 1 7.9998 1C6.52704 1 5.33313 2.19391 5.33313 3.66667C5.33313 5.13943 6.52704 6.33333 7.9998 6.33333Z" stroke="#0071FF" stroke-width="2" stroke-linecap="round"/>
<path d="M18.6665 15.6666C20.1393 15.6666 21.3332 14.4727 21.3332 13C21.3332 11.5272 20.1393 10.3333 18.6665 10.3333C17.1938 10.3333 15.9999 11.5272 15.9999 13C15.9999 14.4727 17.1938 15.6666 18.6665 15.6666Z" stroke="#0071FF" stroke-width="2" stroke-linecap="round"/>
<path d="M5.33341 25C6.80617 25 8.00008 23.8061 8.00008 22.3334C8.00008 20.8606 6.80617 19.6667 5.33341 19.6667C3.86066 19.6667 2.66675 20.8606 2.66675 22.3334C2.66675 23.8061 3.86066 25 5.33341 25Z" stroke="#0071FF" stroke-width="2" stroke-linecap="round"/>
</svg>
