<svg width="19" height="20" viewBox="0 0 19 20" fill="none" xmlns="http://www.w3.org/2000/svg">
<path fill-rule="evenodd" clip-rule="evenodd" d="M1.20741 8.85815C1.20741 5.1461 4.21938 2.136 7.93594 2.136C11.6525 2.136 14.6645 5.1461 14.6645 8.85815C14.6645 12.5702 11.6525 15.5803 7.93594 15.5803C4.21938 15.5803 1.20741 12.5702 1.20741 8.85815ZM7.93594 0.928589C3.55354 0.928589 0 4.47828 0 8.85815C0 13.238 3.55354 16.7877 7.93594 16.7877C9.90986 16.7877 11.7156 16.0675 13.1042 14.8757L17.2852 19.0531C17.5211 19.2887 17.9033 19.2885 18.139 19.0527C18.3746 18.8168 18.3745 18.4346 18.1386 18.1989L13.9584 14.0223C15.1511 12.635 15.8719 10.8308 15.8719 8.85815C15.8719 4.47828 12.3183 0.928589 7.93594 0.928589Z" fill="#2E2E2E"/>
</svg>
